<svg width="500" height="500" viewBox="0 0 500 500" fill="none" xmlns="http://www.w3.org/2000/svg">
  <!-- Center point at 250, 250 -->
  <!-- 8 diamond petals arranged in a star pattern -->

  <!-- Top petal (vertical diamond) -->
  <path d="M 250 50 L 220 160 L 250 250 L 280 160 Z" fill="currentColor"/>

  <!-- Top-right petal (diagonal diamond) -->
  <path d="M 385 115 L 305 160 L 250 250 L 340 195 Z" fill="currentColor"/>

  <!-- Right petal (horizontal diamond) -->
  <path d="M 450 250 L 340 220 L 250 250 L 340 280 Z" fill="currentColor"/>

  <!-- Bottom-right petal (diagonal diamond) -->
  <path d="M 385 385 L 340 305 L 250 250 L 305 340 Z" fill="currentColor"/>

  <!-- Bottom petal (vertical diamond) -->
  <path d="M 250 450 L 280 340 L 250 250 L 220 340 Z" fill="currentColor"/>

  <!-- Bottom-left petal (diagonal diamond) -->
  <path d="M 115 385 L 195 340 L 250 250 L 160 305 Z" fill="currentColor"/>

  <!-- Left petal (horizontal diamond) -->
  <path d="M 50 250 L 160 280 L 250 250 L 160 220 Z" fill="currentColor"/>

  <!-- Top-left petal (diagonal diamond) -->
  <path d="M 115 115 L 160 195 L 250 250 L 195 160 Z" fill="currentColor"/>
</svg>
