<svg width="500" height="500" viewBox="0 0 500 500" fill="none" xmlns="http://www.w3.org/2000/svg">
  <!-- Center point at 250, 250 -->
  <!-- 8 diamond petals that move outward from center -->

  <!-- Top petal (vertical diamond) - moves up -->
  <path d="M 250 50 L 220 160 L 250 250 L 280 160 Z" fill="currentColor">
    <animateTransform
      attributeName="transform"
      type="translate"
      values="0,0; 0,-20; 0,0"
      dur="2s"
      repeatCount="indefinite"/>
  </path>

  <!-- Top-right petal (diagonal diamond) - moves up-right -->
  <path d="M 385 115 L 305 160 L 250 250 L 340 195 Z" fill="currentColor">
    <animateTransform
      attributeName="transform"
      type="translate"
      values="0,0; 14,-14; 0,0"
      dur="2s"
      repeatCount="indefinite"/>
  </path>

  <!-- Right petal (horizontal diamond) - moves right -->
  <path d="M 450 250 L 340 220 L 250 250 L 340 280 Z" fill="currentColor">
    <animateTransform
      attributeName="transform"
      type="translate"
      values="0,0; 20,0; 0,0"
      dur="2s"
      repeatCount="indefinite"/>
  </path>

  <!-- Bottom-right petal (diagonal diamond) - moves down-right -->
  <path d="M 385 385 L 340 305 L 250 250 L 305 340 Z" fill="currentColor">
    <animateTransform
      attributeName="transform"
      type="translate"
      values="0,0; 14,14; 0,0"
      dur="2s"
      repeatCount="indefinite"/>
  </path>

  <!-- Bottom petal (vertical diamond) - moves down -->
  <path d="M 250 450 L 280 340 L 250 250 L 220 340 Z" fill="currentColor">
    <animateTransform
      attributeName="transform"
      type="translate"
      values="0,0; 0,20; 0,0"
      dur="2s"
      repeatCount="indefinite"/>
  </path>

  <!-- Bottom-left petal (diagonal diamond) - moves down-left -->
  <path d="M 115 385 L 195 340 L 250 250 L 160 305 Z" fill="currentColor">
    <animateTransform
      attributeName="transform"
      type="translate"
      values="0,0; -14,14; 0,0"
      dur="2s"
      repeatCount="indefinite"/>
  </path>

  <!-- Left petal (horizontal diamond) - moves left -->
  <path d="M 50 250 L 160 280 L 250 250 L 160 220 Z" fill="currentColor">
    <animateTransform
      attributeName="transform"
      type="translate"
      values="0,0; -20,0; 0,0"
      dur="2s"
      repeatCount="indefinite"/>
  </path>

  <!-- Top-left petal (diagonal diamond) - moves up-left -->
  <path d="M 115 115 L 160 195 L 250 250 L 195 160 Z" fill="currentColor">
    <animateTransform
      attributeName="transform"
      type="translate"
      values="0,0; -14,-14; 0,0"
      dur="2s"
      repeatCount="indefinite"/>
  </path>
</svg>
